/* XPM */
static char *test_map_2_xpm[] = {
"100 60 16 1",
"0	c #000000",
"1	c #FF0000",
"2	c #00FF00",
"3	c #FFFF00",
"4	c #0000FF",
"5	c #FF00FF",
"6	c #00FFFF",
"7	c #FFFFFF",
"8	c #DBDBDB",
"9	c #B6B6B6",
"A	c #929292",
"B	c #6D6D6D",
"C	c #494949",
"D	c #242424",
"E	c #DB0000",
"F	c #B60000",
"7777777777777777777777777777777777777777777777777777777777777777777777777777777777777777777777777777",
"7000000000000000000000000000000000000000000007000000000000000000000000000000000000000007777777777777",
"7000000000000000000000000000000000000000000000700000000000000000000000000000000000000007700000000077",
"7000000000000000000000000000000000000000000777770000000000000000000000000000000000000007700000000077",
"7000000000000000000000000000000000000000000000700000000000000000000000000000000000000007700000000077",
"7000000000000000000000000000000000000000000007000000000000000000000000000000000000000007700000000077",
"7000000000000000000000000000000000000000000000000000000000000000000000000000000000000007700000000077",
"7000000000000000000000000000000000000000000000000000000000000000000000000000000000000007700000000077",
"7000000000000000000000000000000000000000000000000000000000000000000000000000000007777777777777000077",
"7777777777777777777777077000000000000000000777770000000000000000000000000000000000000007700000000077",
"7007007007007007007007007000000000000777000777700000000000000000000000000000000000000007700000000077",
"7777777777777777777777707000777000000707000777000000000000000000000000000000000000000007700000000077",
"7007007007007007007007707000707000000777000770000000000000000000000000000000000000000007700000000007",
"7777777777777707777777707000777000000000000770000000000000000000000000000000000000000007700000000077",
"7000007007000000007007007000000000000000000770000000000000000000000000000000777000000007700000000077",
"7707777707777000077777077000000000000000000770000000000000000000000000000000000000000007700000000077",
"7000000007007000007007077000000000000000000770000000000000000000000000000000000000000007700000000077",
"7777700777770000000777000000000000000000000770000000000000000000000000000000000000777007700000000077",
"7000000000000000000077777777777777777777777770000000000000000000000000000000000000000007000000000077",
"7000000000000000000077777770007777700000777770000000000000000000000000000000000000000007700000000077",
"7000000000000000000000000000000000000000000000000000000000000000000000000000000000000007700000000077",
"7000000000000000000000000000000000000000000000000000000000000000000000000000777700000007700000000077",
"7000000000000000000000000000000000000000000000000000000000000000000000000000000000000007700000000077",
"7000000000000000000000000000000777700007777700000000000000000000000000000000000000000007700000000077",
"7777777007777700777770000777700000000000000000000000000000000000000000000000000000077777700000000077",
"7000000000000000000000000000000000000000000000000000000000000000000000000000000000000007700000000007",
"7000000000000000000000000000000000000000000000000000000000000000000000000000000000000007700000000077",
"7000000000000000000000000000000000000000000000000000000000000000000000000000000000000007700000000077",
"7000000000000000000000000000000000000000000000000000000000000000000000000000000770000007700000000077",
"7000000000000000000000000000000000000000000000000000000000000000000000000000000000000007700000000077",
"7000000000000000000000000000000000000000000000000000000000000000000000000000000000000007700000000077",
"7000000000000000000000000000000000000000000000000000000000000000000000000000000000007777000000000077",
"7000000000000000000000000000000000000000000000000000000000000000000000000000000000000007700000000077",
"7777777777777777777777777777777777777777777777777777777777777777777777777777777700000007700000000077",
"7777777777777777777777777777777777777777777777777777777777777777777777777777777700000007700000000077",
"7777777777777777777777777777777777777777777777777777777777777777777777777777777000000007700000000077",
"7770077700777777777777777700077777777777777777777700000777770007777777777777777000000007700000000077",
"7700000000007777770000000000000777777770077777770000000000000000000000777777000000000007700000000077",
"7000000000000077000000000000000000000000000770000000000000000000000000007700000000077777700000000007",
"7000000000000000000000000000007000000000000000000000000000000000000000000000000000000007700000000077",
"7000000000000000000000000000007000000000000000000000000000000000000000000000000000000007700000000077",
"7000000000000000000077777000007000000000000000000000000000000000000000000000000000000007700000000077",
"7000000000000000777700000000007000000000000000000000000000000000000000000000007770000007700000000077",
"7000000000077777000000000000000000000007777777000000000000000000000000000000000000000007700000000077",
"7000000000000000000000000000700000000000000000000000000000000000000000000000000000000007700000000077",
"7000000000000000000000000000700000000000000000000000000000000000000000000000000000000007000000000077",
"7000000777777777777777777700700000000000000000777777777007777777777777777700000000007777700000000077",
"7000000000000000000000000000700000000000000000000000000000000000000000000000000000000007700000000077",
"7000007777777777777777777777777777777777777777777777777777777777777777777777000000000007700000000077",
"7000007777777777777777777777777777777777777777777777777777777777777777777777000000000007700000000077",
"7000007777777777777777777777777777777777777777777777777777777777777777777777000777700007700000000077",
"7000000000000000000000000000000070000000000000000000000000000000000000000007000000000007700000000077",
"7000000777777777777770077777777077777707777777770777777770077777770000000007000000000007700000000077",
"7000000000000000000000000000000077777707777777770777777770077777770000000007000000000007700000000007",
"7000000000000000000000000000000070000000000000000000000000000000000000000007000077777777700000000077",
"7000000000000000000000000000000070000000000000000000000000000000000000000007000000000007700000000077",
"7000000000000000000000000000000000000000000000000000000000000000000000000007000000000007700000000077",
"7000000000000000000000000000000000000000000000000000000000000000000000000007000000000000000000000077",
"7000000077000777000077700007770000077700000777700007777000077700007770000007000000000077777777777777",
"7777777777777777777777777777777777777777777777777777777777777777777777777777777777777777777777777777"
};
