/* XPM */
static char *test_map_3_xpm[] = {
"75 30 16 1",
"0	c #000000",
"1	c #FFFFFF",
"2	c #00FF00",
"3	c #FFFF00",
"4	c #0000FF",
"5	c #FF00FF",
"6	c #00FFFF",
"7	c #FFFFFF",
"8	c #DBDBDB",
"9	c #B6B6B6",
"A	c #929292",
"B	c #6D6D6D",
"C	c #494949",
"D	c #242424",
"E	c #DB0000",
"F	c #B66700",
"111111111111111111111441111111111111111111111111111111111111111111111111111",
"1000000000000000000041140000000000000000F1F33010101000000000000000000000001",
"10000000000000000000144100000000000000000F1FF1010100000F0000000000000000001",
"100000000000000000004114000000000000000000F1101010000000000F000000F00000001",
"1000000000000000000004400000000000000000000FF111000F00000000000000000000F01",
"120000000000000000000110000000000000000000000001000000000000000F00000000001",
"122000000000000000000440000000000000000000000001000000F00000000000000000001",
"1111211000000000000001100000000000000000000000010F0000000000000000000000001",
"1120221100000000000004400000000000000000000EE001000000000000000000000000001",
"111200011000001110000000001110000000000000011000000000000000F00000000000001",
"1000110010000013100000000013100000000000000111110000000000000000000000000F1",
"10000100000000111000000000111000000000000EE110000000000000000000000F0000001",
"212001000000000100000000000100000000000EE11110F00000000F0000000000000000001",
"1210010EEEEEEEE1EEEEEEEEEEE101111111111111111000F000000000000000F0000000001",
"100001011111111111111111111101000001000000011000000000000000000000000000001",
"100221000000000000000000000001000001000000011EEEEEEEEEEEEEEEEEEEEEEEE100001",
"100111111111111111111111111111111111111111111111111111111111111111111100001",
"10000000F00101010110000000000000000000000F0F000000F0F0000000000100000000001",
"100000000F00101010101111111111100000000000F000F0000F000F0000000100000000001",
"1111100000F0010101F0F00000F000111000000000F000F0000F000F0000000100011111111",
"10000E00000F00101000000000000000111FFFFF00F000F00000000F0000000100000000001",
"100000E00000F00100F0F1000000000000000000000000F00000000F0000000100000000001",
"1000000E00000F0100000000000000000000000000000F0F000000F0F0000001EEEEEEE0001",
"10000000E00000F100F0F000000000000000EEEEE11EEEEEEE11EEEEEE10000111111110001",
"100000000E00000F00000000000000000011111111111111111111111111110000000000001",
"1000000000E0000000F0F00000E0000000000000000000000000000000000FFFFFFF0000001",
"10000000000E000000101000001000000000000000000000000000000000000000000001111",
"100000000000E00000000000000000000000000000000000220000000000000000000000001",
"1000000000000E1100000001EEEEEEEEEEEE11122000022111211111221EEEEEEEEEEEEEEE1",
"111111111111111111111111111111111111111111221111211122111111111111111111111"
};
